<mxfile host="app.diagrams.net" modified="2024-02-19T18:51:05.126Z" agent="Mozilla/5.0 (Windows NT 10.0; Win64; x64) AppleWebKit/537.36 (KHTML, like Gecko) Chrome/119.0.0.0 Safari/537.36" etag="RZ3vNZHxnFnsLrlJMH3e" version="23.1.5" type="github">
  <diagram name="Página-1" id="1Ap6xqnHw2mHwpkb77q2">
    <mxGraphModel dx="1647" dy="897" grid="1" gridSize="10" guides="1" tooltips="1" connect="1" arrows="1" fold="1" page="1" pageScale="1" pageWidth="827" pageHeight="1169" math="0" shadow="0">
      <root>
        <mxCell id="0" />
        <mxCell id="1" parent="0" />
        <mxCell id="99YHyzjXTwZpgbEiIFKC-1" value="Mudança de mercado: Agia pare de produzir peças de plastico por&amp;nbsp; pouca procura&amp;nbsp;" style="text;html=1;align=center;verticalAlign=middle;resizable=0;points=[];autosize=1;strokeColor=none;fillColor=none;" vertex="1" parent="1">
          <mxGeometry x="50" y="50" width="460" height="30" as="geometry" />
        </mxCell>
      </root>
    </mxGraphModel>
  </diagram>
</mxfile>
